<svg style="position: absolute; width: 0; height: 0;" width="0" height="0" version="1.1" xmlns="http://www.w3.org/2000/svg" xmlns:xlink="http://www.w3.org/1999/xlink">
<defs>

<symbol id="superscale-logo" viewBox="0 0 32 32">
<path d="M0 30.939h31.823v1.061h-31.823v-1.061z"></path>
<path d="M0 0h31.823v1.061h-31.823v-1.061z"></path>
<path d="M0 19.624h9.451c-0.458 0.242-0.788 0.663-0.788 1.28 0 1.050 0.755 1.393 1.478 1.665 0.49 0.179 0.995 0.35 0.995 0.778s-0.382 0.599-0.762 0.599c-0.583 0-0.902-0.304-1.322-0.693l-0.817 0.801c0.297 0.301 0.61 0.536 0.955 0.697h-9.19v1.061h31.823v-1.061h-0.67v-0.882h-2.318v-1.238h2.318v-1.043h-2.318v-1.082h2.318v-0.882h0.67v-1.061h-31.823v1.061zM10.765 21.511c-0.35-0.124-0.84-0.217-0.84-0.615 0-0.311 0.304-0.467 0.591-0.467 0.421 0 0.81 0.24 1.128 0.506l0.707-0.887c-0.232-0.175-0.461-0.316-0.698-0.424h2.974c-0.994 0.438-1.685 1.404-1.685 2.564s0.629 2.134 1.6 2.564h-3.018c0.543-0.26 0.951-0.723 0.951-1.428 0-1.19-0.941-1.549-1.711-1.812zM21.422 23.954l0.265 0.797h-2.348l0.285-0.797h1.798zM19.99 22.95l0.56-1.572h0.007l0.522 1.572h-1.089zM21.217 19.624h2.491v5.127h-0.58l-1.911-5.127zM17.955 24.751h-0.955c0.24-0.104 0.47-0.24 0.686-0.408l-0.716-0.902c-0.311 0.295-0.732 0.474-1.144 0.474-0.995 0-1.549-0.723-1.549-1.727s0.654-1.727 1.556-1.727c0.428 0 0.817 0.187 1.144 0.46l0.606-0.972c-0.202-0.127-0.396-0.235-0.592-0.324h3.092l-2.132 5.127zM27.575 24.751h-0.428v-0.882h-2.178v-4.245h2.606v5.127z"></path>
<path d="M0 7.249h1.312c-0.454 0.242-0.781 0.663-0.781 1.276 0 1.050 0.755 1.393 1.478 1.665 0.49 0.179 0.995 0.35 0.995 0.778s-0.382 0.599-0.762 0.599c-0.583 0-0.902-0.304-1.322-0.693l-0.817 0.801c0.299 0.302 0.615 0.539 0.962 0.7h-1.064v1.061h31.823v-1.061h-8.831c-0.398-0.546-1.091-1.51-1.527-2.116 0.59-0.233 1.128-0.7 1.128-1.517s-0.511-1.269-1.116-1.494h10.348v-1.061h-31.825v1.061zM2.632 9.132c-0.35-0.124-0.84-0.217-0.84-0.615 0-0.311 0.304-0.467 0.591-0.467 0.421 0 0.81 0.24 1.128 0.506l0.707-0.888c-0.228-0.173-0.456-0.313-0.689-0.421h1.25v2.716c0 1.202 0.329 2.026 1.059 2.412h-2.452c0.546-0.258 0.958-0.725 0.958-1.432 0-1.19-0.941-1.549-1.711-1.812zM11.803 10.525c0.949 0 2.084-0.46 2.084-1.727 0-0.84-0.514-1.321-1.135-1.549h1.672v5.127h-3.142v-1.851h0.522zM11.281 9.482v-1.354h0.49c0.467 0 0.778 0.265 0.778 0.693 0 0.49-0.389 0.661-0.926 0.661h-0.343zM10.021 12.376h-1.863c0.743-0.385 1.070-1.209 1.070-2.412v-2.716h0.792v5.127zM7.968 10.097c0 0.972-0.373 1.439-0.965 1.439s-0.965-0.467-0.965-1.439v-2.848h1.929v2.848zM20.042 12.376v-1.968h0.055l1.333 1.968h-1.388zM20.042 9.365v-1.238h0.483c0.435 0 0.732 0.256 0.732 0.638 0 0.421-0.373 0.599-0.879 0.599h-0.334zM18.781 12.376h-0.778v-0.887h-2.318v-1.238h2.318v-1.043h-2.318v-1.082h2.318v-0.879h0.778v5.127z"></path>
</symbol>

<symbol id="arpeggio" viewBox="0 0 32 32">
    <path d="M8.326 6.771h-0.301v17.082c-0.736-0.586-2.118-0.579-3.418 0.096-1.568 0.816-2.416 2.291-1.894 3.299 0.522 1.005 2.218 1.162 3.789 0.346 1.178-0.611 1.949-1.597 2.038-2.477h0.010v-11.917l9.869-1.344v8.422c-0.736-0.586-2.118-0.579-3.418 0.096-1.568 0.816-2.416 2.291-1.894 3.299s2.218 1.162 3.789 0.346c1.178-0.611 1.949-1.597 2.038-2.477h0.010v-9.76l9.869-1.344v6.266c-0.736-0.586-2.118-0.579-3.418 0.096-1.568 0.816-2.416 2.291-1.894 3.299s2.218 1.162 3.789 0.346c1.178-0.611 1.949-1.597 2.038-2.477h0.010v-14.061l-21.011 2.864zM8.55 10.669v-1.398l9.869-1.344v1.398l-9.869 1.344zM28.813 7.907l-9.869 1.344v-1.398l9.869-1.344v1.398z"></path>
</symbol>

<symbol id="chords" viewBox="0 0 32 32">
<path d="M7.36 29.44h-1.92v-1.6h1.92v1.6zM7.36 2.56h-1.92v16.32h1.92v-16.32zM19.84 2.56h-1.92v26.88h1.92v-26.88zM6.4 21.12c-1.235 0-2.24 1.005-2.24 2.24s1.005 2.24 2.24 2.24 2.24-1.005 2.24-2.24-1.005-2.24-2.24-2.24zM6.4 19.84c1.946 0 3.52 1.574 3.52 3.52s-1.574 3.52-3.52 3.52-3.52-1.574-3.52-3.52 1.574-3.52 3.52-3.52v0zM13.44 19.84h-1.92v9.6h1.92v-9.6zM13.44 2.56h-1.92v8.32h1.92v-8.32zM12.48 13.12c-1.235 0-2.24 1.005-2.24 2.24s1.005 2.24 2.24 2.24 2.24-1.005 2.24-2.24-1.005-2.24-2.24-2.24zM12.48 11.84c1.946 0 3.52 1.574 3.52 3.52s-1.574 3.52-3.52 3.52-3.52-1.574-3.52-3.52 1.574-3.52 3.52-3.52v0zM26.24 13.76h-1.92v15.68h1.92v-15.68zM26.24 2.56h-1.92v2.24h1.92v-2.24zM25.28 7.040c-1.235 0-2.24 1.005-2.24 2.24s1.005 2.24 2.24 2.24 2.24-1.005 2.24-2.24-1.005-2.24-2.24-2.24zM25.28 5.76c1.946 0 3.52 1.574 3.52 3.52s-1.574 3.52-3.52 3.52-3.52-1.574-3.52-3.52 1.574-3.52 3.52-3.52v0z"></path>
</symbol>

<symbol id="share" viewBox="0 0 32 32">
<path d="M23.523 17.424c-1.472 0-2.813 0.547-3.84 1.443l-5.418-1.773c0.045-0.288 0.074-0.582 0.074-0.883 0-0.502-0.070-0.989-0.189-1.456l4.582-2.323c1.075 1.309 2.704 2.141 4.528 2.141 3.235 0 5.859-2.624 5.859-5.859s-2.624-5.859-5.859-5.859-5.859 2.624-5.859 5.859c0 0.502 0.070 0.989 0.189 1.456l-4.582 2.323c-1.075-1.309-2.704-2.141-4.528-2.141-3.235 0-5.859 2.624-5.859 5.859s2.624 5.859 5.859 5.859c2.032 0 3.824-1.037 4.874-2.608l4.765 1.558c-0.291 0.698-0.454 1.459-0.454 2.262 0 3.235 2.624 5.859 5.859 5.859s5.859-2.624 5.859-5.859-2.624-5.859-5.859-5.859zM23.261 5.389c1.834 0 3.325 1.491 3.325 3.325s-1.491 3.325-3.325 3.325-3.325-1.491-3.325-3.325 1.491-3.325 3.325-3.325zM8.477 19.536c-1.834 0-3.325-1.491-3.325-3.325s1.491-3.325 3.325-3.325 3.325 1.491 3.325 3.325-1.491 3.325-3.325 3.325zM23.52 26.608c-1.834 0-3.325-1.491-3.325-3.325s1.491-3.325 3.325-3.325 3.325 1.491 3.325 3.325-1.491 3.325-3.325 3.325z"></path>
</symbol>

</defs>
</svg>