<svg style="position: absolute; width: 0; height: 0;" width="0" height="0" version="1.1" xmlns="http://www.w3.org/2000/svg" xmlns:xlink="http://www.w3.org/1999/xlink">
<defs>


<symbol id="ss-logo" viewBox="0 0 100 32">
<path style="fill: var(--sslogo-color1)" d="M37.691 25.176h2.689c0 0.874 0.624 1.578 3.204 1.578 2.721 0 3.172-0.547 3.172-1.251 0-0.422-0.266-0.672-0.813-0.797-0.64-0.141-2.218-0.202-3.361-0.266-1.36-0.077-2.861-0.25-3.703-0.688-0.749-0.39-1.251-1.127-1.251-2.125 0-1.908 1.844-3.47 5.924-3.47 4.891 0 5.736 1.687 5.736 3.546h-2.689c0-0.938-0.922-1.485-3.047-1.485s-2.922 0.454-2.922 1.187c0 0.39 0.218 0.624 0.656 0.765 0.563 0.173 2.109 0.234 3.268 0.314 1.501 0.093 2.781 0.218 3.658 0.579 0.986 0.406 1.546 1.219 1.546 2.205 0 1.626-0.874 3.546-6.174 3.546s-5.892-2.266-5.892-3.642zM50.932 23.502c0-3.047 2.173-5.345 6.456-5.345 4.532 0 6.001 2.471 6.001 4.19 0 0.032 0 0.157-0.016 0.25h-2.673v-0.064c0-0.954-0.954-2.157-3.172-2.157s-3.438 1.36-3.438 3.127c0 1.642 0.97 3.095 3.453 3.095 2.125 0 3.204-0.97 3.204-2.109v-0.093h2.673c0.016 0.077 0.016 0.189 0.016 0.218 0 2-1.626 4.206-6.017 4.206-4.875 0-6.484-2.657-6.484-5.313zM73.877 26.537h-6.049l-1.063 2.093h-3.095l5.595-10.284h3.562l5.595 10.284h-3.486l-1.063-2.093zM72.984 24.786l-2.141-4.19h-0.016l-2.125 4.19h4.282zM79.629 18.346h3.002v7.909h6.094v2.375h-9.096v-10.284zM90.008 18.346h9.72v2.218h-6.721v2.016h5.156v1.751h-5.156v2.077h6.878v2.218h-9.877v-10.284zM37.572 11.663h2.698c0 0.88 0.627 1.584 3.217 1.584 2.73 0 3.185-0.55 3.185-1.255 0-0.422-0.266-0.675-0.816-0.8-0.643-0.141-2.228-0.205-3.373-0.266-1.363-0.077-2.871-0.25-3.719-0.691-0.752-0.394-1.255-1.13-1.255-2.135 0-1.914 1.853-3.482 5.947-3.482 4.91 0 5.758 1.693 5.758 3.562h-2.698c0-0.941-0.925-1.492-3.060-1.492s-2.935 0.455-2.935 1.194c0 0.394 0.221 0.627 0.659 0.768 0.563 0.173 2.119 0.237 3.281 0.314 1.508 0.093 2.794 0.221 3.671 0.579 0.989 0.406 1.552 1.223 1.552 2.212 0 1.632-0.88 3.562-6.196 3.562s-5.915-2.276-5.915-3.655zM51.098 10.521v-5.713h3.012v5.38c0 1.978 1.223 2.746 3.233 2.746s3.233-0.768 3.233-2.746v-5.38h2.698v5.71c0 3.265-2.292 4.801-6.072 4.801s-6.104-1.536-6.104-4.801zM64.954 4.807h6.212c3.53 0 5.083 1.239 5.083 3.703s-1.523 3.578-5.163 3.578h-3.124v3.044h-3.012v-10.325zM71.025 10.175c1.616 0 2.368-0.502 2.368-1.568s-0.675-1.568-2.352-1.568h-3.076v3.137h3.060zM77.539 4.807h9.759v2.228h-6.747v2.023h5.179v1.757h-5.179v2.087h6.904v2.228h-9.916v-10.322zM88.901 4.807h6.497c3.828 0 5.022 1.207 5.022 3.060 0 1.037-0.439 2.039-1.866 2.465v0.032c1.632 0.378 1.805 1.524 1.805 2.605v2.167h-3.012v-2.167c0-1.066-0.406-1.552-1.693-1.552h-3.735v3.719h-3.012v-10.328zM95.539 9.656c1.492 0 2.023-0.55 2.023-1.351 0-0.736-0.55-1.271-2.292-1.271h-3.357v2.621h3.623z"></path>
<path style="fill: var(--sslogo-color3)" d="M31.401 1.437h-30.46c-0.518 0-0.941 0.423-0.941 0.941v28.678c0 0.518 0.422 0.941 0.941 0.941h30.46c0.518 0 0.941-0.422 0.941-0.941v-28.678c0-0.518-0.422-0.941-0.941-0.941zM24.536 7.326v-4.769h6.686v4.769h-6.686zM24.536 13.215v-4.769h6.686v4.769h-6.686zM24.536 19.105v-4.769h6.686v4.769h-6.686zM24.536 24.991v-4.769h6.686v4.769h-6.686zM31.222 26.111v4.769h-6.686v-4.769h6.686zM23.416 26.111v4.769h-6.686v-4.769h6.686zM23.416 20.222v4.769h-6.686v-4.769h6.686zM23.416 14.332v4.769h-6.686v-4.769h6.686zM23.416 8.447v4.769h-6.686v-4.769h6.686zM23.416 2.557v4.769h-6.686v-4.769h6.686zM15.613 26.111v4.769h-6.686v-4.769h6.686zM15.613 20.222v4.769h-6.686v-4.769h6.686zM15.613 14.332v4.769h-6.686v-4.769h6.686zM15.613 8.447v4.769h-6.686v-4.769h6.686zM15.613 2.557v4.769h-6.686v-4.769h6.686zM7.806 2.557v4.769h-6.689v-4.769h6.686zM7.806 8.447v4.769h-6.689v-4.769h6.686zM7.806 14.332v4.769h-6.689v-4.769h6.686zM7.806 20.222v4.769h-6.689v-4.769h6.686zM7.806 26.111v4.769h-6.689v-4.769h6.686z"></path>
<path style="fill: var(--sslogo-color2)" d="M3.201 24.181c0.749-0.749 1.962-0.749 2.711 0s0.749 1.962 0 2.711-1.962 0.749-2.711 0c-0.749-0.749-0.749-1.962 0-2.711zM21.47 12.508c-0.749-0.749-1.962-0.749-2.711 0s-0.749 1.962 0 2.711c0.749 0.749 1.962 0.749 2.711 0s0.749-1.962 0-2.711z"></path>
<path style="fill: var(--sslogo-color1)" d="M29.251 3.274c-0.749 0.749-1.962 0.749-2.711 0s-0.749-1.962 0-2.711c0.749-0.749 1.962-0.749 2.711 0s0.749 1.962 0 2.711zM21.47 0.56c-0.749-0.749-1.962-0.749-2.711 0s-0.749 1.962 0 2.711c0.749 0.749 1.962 0.749 2.711 0s0.749-1.962 0-2.711zM13.692 0.56c-0.749-0.749-1.962-0.749-2.711 0s-0.749 1.962 0 2.711 1.962 0.749 2.711 0c0.749-0.749 0.749-1.962 0-2.711zM5.912 0.56c-0.749-0.749-1.962-0.749-2.711 0s-0.749 1.962 0 2.711c0.749 0.749 1.962 0.749 2.711 0s0.749-1.962 0-2.711zM5.912 6.398c-0.749-0.749-1.962-0.749-2.711 0s-0.749 1.962 0 2.711 1.962 0.749 2.711 0c0.749-0.749 0.749-1.962 0-2.711zM10.978 26.892c0.749 0.749 1.962 0.749 2.711 0s0.749-1.962 0-2.711c-0.749-0.749-1.962-0.749-2.711 0s-0.749 1.962 0 2.711zM18.759 26.892c0.749 0.749 1.962 0.749 2.711 0s0.749-1.962 0-2.711-1.962-0.749-2.711 0c-0.749 0.749-0.749 1.962 0 2.711zM26.54 26.892c0.749 0.749 1.962 0.749 2.711 0s0.749-1.962 0-2.711-1.962-0.749-2.711 0c-0.749 0.749-0.749 1.962 0 2.711zM26.54 21.057c0.749 0.749 1.962 0.749 2.711 0s0.749-1.962 0-2.711c-0.749-0.749-1.962-0.749-2.711 0s-0.749 1.962 0 2.711zM5.912 12.508c-0.749-0.749-1.962-0.749-2.711 0s-0.749 1.962 0 2.711c0.749 0.749 1.962 0.749 2.711 0s0.749-1.962 0-2.711zM13.692 12.508c-0.749-0.749-1.962-0.749-2.711 0s-0.749 1.962 0 2.711c0.749 0.749 1.962 0.749 2.711 0s0.749-1.962 0-2.711zM29.251 12.508c-0.749-0.749-1.962-0.749-2.711 0s-0.749 1.962 0 2.711c0.749 0.749 1.962 0.749 2.711 0s0.749-1.962 0-2.711z"></path>
</symbol>

<symbol id="ss-logo-new" viewBox="0 0 107 32">
<path style="fill: var(--sslogo-color3)" d="M23.051 5.235v-4.216l-6.805 0.799v4.214l6.805-0.797z"></path>
<path style="fill: var(--sslogo-color3)" d="M15.192 6.157v-4.216l-6.805 0.799v4.216l6.805-0.799z"></path>
<path style="fill: var(--sslogo-color3)" d="M7.332 2.863l-7.332 0.861v4.214l7.332-0.859v-4.216z"></path>
<path style="fill: var(--sslogo-color3)" d="M31.438 4.251v-4.216l-7.332 0.861v4.214l7.332-0.859z"></path>
<path style="fill: var(--sslogo-color3)" d="M7.332 8.834l-7.332 0.861v4.216l7.332-0.861v-4.216z"></path>
<path style="fill: var(--sslogo-color3)" d="M7.332 14.805l-7.332 0.861v4.216l7.332-0.861v-4.216z"></path>
<path style="fill: var(--sslogo-color3)" d="M15.192 13.883l-6.805 0.799v4.216l6.805-0.799v-4.216z"></path>
<path style="fill: var(--sslogo-color3)" d="M16.246 17.976l6.805-0.799v-4.216l-6.805 0.799v4.216z"></path>
<path style="fill: var(--sslogo-color3)" d="M31.438 16.193v-4.216l-7.332 0.861v4.214l7.332-0.859z"></path>
<path style="fill: var(--sslogo-color3)" d="M31.438 22.165v-4.216l-7.332 0.861v4.216l7.332-0.861z"></path>
<path style="fill: var(--sslogo-color3)" d="M0 27.784v4.216l7.332-0.861v-4.214l-7.332 0.859z"></path>
<path style="fill: var(--sslogo-color3)" d="M8.387 26.8v4.216l6.805-0.799v-4.216l-6.805 0.799z"></path>
<path style="fill: var(--sslogo-color3)" d="M31.438 28.311v-4.216l-7.332 0.861v4.216l7.332-0.861z"></path>
<path style="fill: var(--sslogo-color3)" d="M16.246 25.878v4.216l6.805-0.799v-4.216l-6.805 0.799z"></path>
<path style="fill: var(--sslogo-color1)" d="M39.084 24.756h2.911c0 0.947 0.678 1.709 3.47 1.709 2.945 0 3.437-0.592 3.437-1.353 0-0.457-0.287-0.728-0.881-0.863-0.693-0.152-2.404-0.221-3.638-0.287-1.472-0.084-3.097-0.271-4.011-0.744-0.812-0.424-1.353-1.218-1.353-2.302 0-2.064 1.998-3.757 6.414-3.757 5.298 0 6.211 1.828 6.211 3.841h-2.911c0-1.015-0.998-1.607-3.3-1.607s-3.165 0.49-3.165 1.287c0 0.424 0.236 0.678 0.711 0.83 0.609 0.186 2.285 0.254 3.536 0.338 1.625 0.102 3.013 0.236 3.96 0.627 1.066 0.439 1.675 1.32 1.675 2.386 0 1.759-0.947 3.841-6.686 3.841s-6.379-2.454-6.379-3.942zM53.419 22.946c0-3.3 2.353-5.788 6.99-5.788 4.907 0 6.498 2.673 6.498 4.536 0 0.033 0 0.17-0.018 0.271h-2.894v-0.068c0-1.033-1.033-2.335-3.435-2.335s-3.724 1.472-3.724 3.384c0 1.777 1.049 3.351 3.739 3.351 2.302 0 3.47-1.049 3.47-2.285v-0.102h2.894c0.018 0.084 0.018 0.203 0.018 0.236 0 2.166-1.759 4.552-6.516 4.552-5.28 0-7.024-2.876-7.024-5.754zM78.266 26.228h-6.549l-1.15 2.267h-3.351l6.059-11.136h3.858l6.059 11.136h-3.774l-1.15-2.267zM77.301 24.332l-2.318-4.536h-0.018l-2.302 4.536h4.638zM84.495 17.361h3.249v8.564h6.6v2.572h-9.849v-11.136zM95.733 17.361h10.527v2.404h-7.278v2.183h5.585v1.896h-5.585v2.251h7.447v2.404h-10.697v-11.136zM38.953 10.124h2.923c0 0.951 0.68 1.716 3.484 1.716 2.956 0 3.448-0.594 3.448-1.359 0-0.459-0.289-0.73-0.885-0.867-0.697-0.152-2.413-0.221-3.653-0.289-1.478-0.084-3.109-0.271-4.026-0.748-0.816-0.424-1.359-1.222-1.359-2.31 0-2.074 2.005-3.773 6.44-3.773 5.317 0 6.235 1.835 6.235 3.856h-2.923c0-1.019-1.002-1.615-3.314-1.615s-3.177 0.492-3.177 1.291c0 0.424 0.238 0.68 0.715 0.832 0.611 0.187 2.294 0.256 3.55 0.34 1.63 0.102 3.025 0.238 3.976 0.629 1.070 0.441 1.681 1.326 1.681 2.396 0 1.767-0.951 3.856-6.711 3.856s-6.405-2.464-6.405-3.958zM53.6 8.885v-6.184h3.263v5.829c0 2.14 1.326 2.974 3.499 2.974s3.499-0.832 3.499-2.974v-5.829h2.923v6.184c0 3.534-2.48 5.2-6.575 5.2s-6.61-1.666-6.61-5.2zM68.604 2.7h6.729c3.823 0 5.505 1.341 5.505 4.009s-1.648 3.874-5.59 3.874h-3.382v3.296h-3.263v-11.179zM75.179 8.512c1.75 0 2.566-0.543 2.566-1.699s-0.73-1.699-2.548-1.699h-3.329v3.398h3.314zM82.232 2.7h10.568v2.413h-7.307v2.191h5.606v1.904h-5.606v2.259h7.475v2.413h-10.738v-11.181zM94.534 2.7h7.033c4.145 0 5.436 1.308 5.436 3.314 0 1.121-0.476 2.208-2.021 2.667v0.033c1.767 0.408 1.955 1.648 1.955 2.82v2.345h-3.263v-2.345c0-1.156-0.441-1.681-1.835-1.681h-4.044v4.026h-3.263v-11.179zM101.721 7.951c1.615 0 2.191-0.596 2.191-1.461 0-0.799-0.596-1.377-2.48-1.377h-3.636v2.837h3.925z"></path>
<path style="fill: var(--sslogo-color2)" d="M20.817 14.145c0 0.699-0.566 1.265-1.265 1.265s-1.265-0.566-1.265-1.265 0.566-1.265 1.265-1.265 1.265 0.566 1.265 1.265zM3.513 26.87c-0.699 0-1.265 0.566-1.265 1.265s0.566 1.265 1.265 1.265 1.265-0.566 1.265-1.265-0.566-1.265-1.265-1.265z"></path>
<path style="fill: var(--sslogo-color1)" d="M4.776 4.075c0 0.699-0.566 1.265-1.265 1.265s-1.265-0.566-1.265-1.265 0.566-1.265 1.265-1.265 1.265 0.566 1.265 1.265zM27.749 0c-0.699 0-1.265 0.566-1.265 1.265s0.566 1.265 1.265 1.265 1.265-0.566 1.265-1.265-0.566-1.265-1.265-1.265zM19.554 0.937c-0.699 0-1.265 0.566-1.265 1.265s0.566 1.265 1.265 1.265 1.265-0.566 1.265-1.265-0.566-1.265-1.265-1.265zM11.708 1.873c-0.699 0-1.265 0.566-1.265 1.265s0.566 1.265 1.265 1.265 1.265-0.566 1.265-1.265-0.566-1.265-1.265-1.265zM3.513 8.781c-0.699 0-1.265 0.566-1.265 1.265s0.566 1.265 1.265 1.265 1.265-0.566 1.265-1.265-0.566-1.265-1.265-1.265zM3.513 14.752c-0.699 0-1.265 0.566-1.265 1.265s0.566 1.265 1.265 1.265 1.265-0.566 1.265-1.265-0.566-1.265-1.265-1.265zM27.749 11.942c-0.699 0-1.265 0.566-1.265 1.265s0.566 1.265 1.265 1.265 1.265-0.566 1.265-1.265-0.566-1.265-1.265-1.265zM11.708 13.817c-0.699 0-1.265 0.566-1.265 1.265s0.566 1.265 1.265 1.265 1.265-0.566 1.265-1.265-0.566-1.265-1.265-1.265zM27.749 17.914c-0.699 0-1.265 0.566-1.265 1.265s0.566 1.265 1.265 1.265 1.265-0.566 1.265-1.265-0.566-1.265-1.265-1.265zM27.749 24.061c-0.699 0-1.265 0.566-1.265 1.265s0.566 1.265 1.265 1.265 1.265-0.566 1.265-1.265-0.566-1.265-1.265-1.265zM19.554 24.998c-0.699 0-1.265 0.566-1.265 1.265s0.566 1.265 1.265 1.265 1.265-0.566 1.265-1.265-0.566-1.265-1.265-1.265zM11.708 25.935c-0.699 0-1.265 0.566-1.265 1.265s0.566 1.265 1.265 1.265 1.265-0.566 1.265-1.265-0.566-1.265-1.265-1.265z"></path>
</symbol>

<symbol id="tick" viewBox="0 0 32 32">
    <path fill="#22b573" style="fill: var(--color1, #22b573)" d="M32 16c0 8.837-7.163 16-16 16s-16-7.163-16-16c0-8.837 7.163-16 16-16s16 7.163 16 16z"></path>
    <path fill="#fff" style="fill: var(--color2, #fff)" d="M13.060 22.88l-5.98-6 2.060-2.080 3.92 3.92 8.86-8.86 2.080 2.080-10.94 10.94z"></path>
</symbol>

<symbol id="cross" viewBox="0 0 32 32">
    <path fill="#b11a59" style="fill: var(--color6, #b11a59)" d="M32 16c0 8.837-7.163 16-16 16s-16-7.163-16-16c0-8.837 7.163-16 16-16s16 7.163 16 16z"></path>
    <path fill="#fff" style="fill: var(--color2, #fff)" d="M22.060 12.020l-2.080-2.080-3.98 3.98-3.98-3.98-2.080 2.080 3.98 3.98-3.98 3.98 2.080 2.080 3.98-3.98 3.98 3.98 2.080-2.080-3.98-3.98 3.98-3.98z"></path>
</symbol>

<symbol id="arpeggio" viewBox="0 0 32 32">
    <path d="M8.326 6.771h-0.301v17.082c-0.736-0.586-2.118-0.579-3.418 0.096-1.568 0.816-2.416 2.291-1.894 3.299 0.522 1.005 2.218 1.162 3.789 0.346 1.178-0.611 1.949-1.597 2.038-2.477h0.010v-11.917l9.869-1.344v8.422c-0.736-0.586-2.118-0.579-3.418 0.096-1.568 0.816-2.416 2.291-1.894 3.299s2.218 1.162 3.789 0.346c1.178-0.611 1.949-1.597 2.038-2.477h0.010v-9.76l9.869-1.344v6.266c-0.736-0.586-2.118-0.579-3.418 0.096-1.568 0.816-2.416 2.291-1.894 3.299s2.218 1.162 3.789 0.346c1.178-0.611 1.949-1.597 2.038-2.477h0.010v-14.061l-21.011 2.864zM8.55 10.669v-1.398l9.869-1.344v1.398l-9.869 1.344zM28.813 7.907l-9.869 1.344v-1.398l9.869-1.344v1.398z"></path>
</symbol>

<symbol id="chords" viewBox="0 0 32 32">
<path d="M7.36 29.44h-1.92v-1.6h1.92v1.6zM7.36 2.56h-1.92v16.32h1.92v-16.32zM19.84 2.56h-1.92v26.88h1.92v-26.88zM6.4 21.12c-1.235 0-2.24 1.005-2.24 2.24s1.005 2.24 2.24 2.24 2.24-1.005 2.24-2.24-1.005-2.24-2.24-2.24zM6.4 19.84c1.946 0 3.52 1.574 3.52 3.52s-1.574 3.52-3.52 3.52-3.52-1.574-3.52-3.52 1.574-3.52 3.52-3.52v0zM13.44 19.84h-1.92v9.6h1.92v-9.6zM13.44 2.56h-1.92v8.32h1.92v-8.32zM12.48 13.12c-1.235 0-2.24 1.005-2.24 2.24s1.005 2.24 2.24 2.24 2.24-1.005 2.24-2.24-1.005-2.24-2.24-2.24zM12.48 11.84c1.946 0 3.52 1.574 3.52 3.52s-1.574 3.52-3.52 3.52-3.52-1.574-3.52-3.52 1.574-3.52 3.52-3.52v0zM26.24 13.76h-1.92v15.68h1.92v-15.68zM26.24 2.56h-1.92v2.24h1.92v-2.24zM25.28 7.040c-1.235 0-2.24 1.005-2.24 2.24s1.005 2.24 2.24 2.24 2.24-1.005 2.24-2.24-1.005-2.24-2.24-2.24zM25.28 5.76c1.946 0 3.52 1.574 3.52 3.52s-1.574 3.52-3.52 3.52-3.52-1.574-3.52-3.52 1.574-3.52 3.52-3.52v0z"></path>
</symbol> 

<symbol id="share" viewBox="0 0 32 32">
<path d="M22.611 28.090c-1.005 0-1.862-0.352-2.566-1.056s-1.056-1.562-1.056-2.566c0-0.141 0.013-0.288 0.032-0.435s0.051-0.288 0.090-0.41l-8.525-4.954c-0.346 0.301-0.723 0.538-1.146 0.71s-0.864 0.256-1.331 0.256c-1.005 0-1.862-0.352-2.566-1.056s-1.056-1.562-1.056-2.566 0.352-1.862 1.056-2.566c0.704-0.704 1.562-1.056 2.566-1.056 0.461 0 0.909 0.083 1.331 0.256s0.806 0.41 1.146 0.71l8.525-4.954c-0.038-0.122-0.070-0.256-0.090-0.41s-0.032-0.294-0.032-0.435c0-1.005 0.352-1.862 1.056-2.566s1.562-1.056 2.566-1.056 1.862 0.352 2.566 1.056c0.704 0.704 1.056 1.562 1.056 2.566s-0.352 1.862-1.056 2.566c-0.704 0.704-1.562 1.056-2.566 1.056-0.461 0-0.909-0.083-1.331-0.256s-0.806-0.41-1.146-0.71l-8.525 4.954c0.038 0.122 0.070 0.256 0.090 0.41s0.032 0.294 0.032 0.435-0.013 0.288-0.032 0.435-0.051 0.288-0.090 0.41l8.525 4.954c0.346-0.301 0.723-0.538 1.146-0.71s0.864-0.256 1.331-0.256c1.005 0 1.862 0.352 2.566 1.056s1.056 1.562 1.056 2.566-0.352 1.862-1.056 2.566c-0.704 0.704-1.562 1.056-2.566 1.056zM22.611 8.749c0.346 0 0.627-0.115 0.864-0.346s0.346-0.518 0.346-0.864-0.115-0.627-0.346-0.864-0.518-0.346-0.864-0.346-0.627 0.115-0.864 0.346-0.346 0.518-0.346 0.864 0.115 0.627 0.346 0.864 0.518 0.346 0.864 0.346zM8.109 17.21c0.346 0 0.627-0.115 0.864-0.346 0.23-0.23 0.346-0.518 0.346-0.864s-0.115-0.627-0.346-0.864c-0.23-0.23-0.518-0.346-0.864-0.346s-0.627 0.115-0.864 0.346c-0.23 0.23-0.346 0.518-0.346 0.864s0.115 0.627 0.346 0.864 0.518 0.346 0.864 0.346zM22.611 25.67c0.346 0 0.627-0.115 0.864-0.346s0.346-0.518 0.346-0.864-0.115-0.627-0.346-0.864-0.518-0.346-0.864-0.346-0.627 0.115-0.864 0.346-0.346 0.518-0.346 0.864 0.115 0.627 0.346 0.864 0.518 0.346 0.864 0.346z"></path>
</symbol>

<!--sidebar-->
<symbol id="scale" viewBox="0 0 32 32">
<path d="M27.648 28.41h-23.546c-0.634 0-1.152-0.518-1.152-1.152v-22.17c0-0.634 0.518-1.152 1.152-1.152h23.546c0.634 0 1.152 0.518 1.152 1.152v22.17c0 0.634-0.518 1.152-1.152 1.152zM22.765 26.694h4.32v-2.835h-4.32v2.835zM16.73 26.694h4.32v-2.835h-4.32v2.835zM10.694 26.694h4.32v-2.835h-4.32v2.835zM4.666 26.694h4.32v-2.835h-4.32v2.835zM22.765 22.144h4.32v-2.835h-4.32v2.835zM16.73 22.144h4.32v-2.835h-4.32v2.835zM10.694 22.144h4.32v-2.835h-4.32v2.835zM4.666 22.144h4.32v-2.835h-4.32v2.835zM22.765 17.587h4.32v-2.835h-4.32v2.835zM16.73 17.587h4.32v-2.835h-4.32v2.835zM10.694 17.587h4.32v-2.835h-4.32v2.835zM4.666 17.587h4.32v-2.835h-4.32v2.835zM22.765 13.037h4.32v-2.835h-4.32v2.835zM16.73 13.037h4.32v-2.835h-4.32v2.835zM10.694 13.037h4.32v-2.835h-4.32v2.835zM4.666 13.037h4.32v-2.835h-4.32v2.835zM22.765 8.486h4.32v-2.835h-4.32v2.835zM16.73 8.486h4.32v-2.835h-4.32v2.835zM10.694 8.486h4.32v-2.835h-4.32v2.835zM4.666 8.486h4.32v-2.835h-4.32v2.835z"></path>
</symbol>

<symbol id="triad" viewBox="0 0 32 32">
<path d="M21.12 8.32c0 2.829-2.291 5.12-5.12 5.12s-5.12-2.291-5.12-5.12 2.291-5.12 5.12-5.12 5.12 2.291 5.12 5.12zM8.32 18.56c-2.829 0-5.12 2.291-5.12 5.12s2.291 5.12 5.12 5.12 5.12-2.291 5.12-5.12-2.291-5.12-5.12-5.12zM23.68 18.56c-2.829 0-5.12 2.291-5.12 5.12s2.291 5.12 5.12 5.12 5.12-2.291 5.12-5.12-2.291-5.12-5.12-5.12z"></path>
</symbol>

<symbol id="settings" viewBox="0 0 32 32">
<path d="M14.554 28.397v-8.166h2.637v2.758h11.206v2.637h-11.206v2.778h-2.637zM3.603 25.619v-2.637h8.307v2.637h-8.307zM9.28 20.083v-2.758h-5.677v-2.637h5.677v-2.778h2.637v8.166h-2.637zM14.554 17.325v-2.637h13.843v2.637h-13.843zM20.083 11.776v-8.173h2.637v2.778h5.677v2.637h-5.677v2.758h-2.637zM3.603 9.018v-2.637h13.843v2.637h-13.843z"></path>
</symbol>

<symbol id="metronome" viewBox="0 0 32 32">
<path d="M11.168 26.874c0 1.235-0.896 1.862-2.394 1.862h-3.283v-6.899h3.098c1.498 0 2.374 0.762 2.374 1.901s-0.774 1.357-1.184 1.414v0.045c0.474 0.045 1.389 0.557 1.389 1.683zM8.109 23.238h-0.71v1.37h0.742c0.544 0 0.87-0.211 0.87-0.659s-0.326-0.71-0.896-0.71zM9.197 26.637c0-0.416-0.346-0.723-0.858-0.723h-0.941v1.421h0.973c0.512 0 0.826-0.23 0.826-0.698zM17.856 24.378c0 1.754-1.306 2.541-2.79 2.541h-1.069v1.818h-1.952v-6.899h2.758c1.869 0 3.053 0.794 3.053 2.541zM15.878 24.378c0-0.608-0.41-1.043-1.299-1.043h-0.589v2.093h0.659c0.787 0 1.222-0.346 1.222-1.043zM26.502 28.736h-1.92v-3.098c0-0.333 0.032-0.698 0.051-0.762l-0.051-0.019c-0.013 0.051-0.102 0.346-0.179 0.525l-1.357 3.418h-0.979l-1.382-3.418c-0.070-0.179-0.166-0.467-0.179-0.525l-0.051 0.019c0.019 0.064 0.051 0.448 0.051 0.762v3.098h-1.901v-6.899h2.067l1.318 2.842c0.269 0.582 0.544 1.299 0.576 1.44h0.045c0.019-0.147 0.301-0.87 0.563-1.453l1.274-2.835h2.061v6.899zM16.87 7.059v-3.552h-2.618v3.552h-2.182v5.229c0 1.466 0.902 2.714 2.182 3.232v5.485h2.618v-5.485c1.28-0.518 2.182-1.766 2.182-3.232v-5.229h-2.182z"></path>
</symbol>

</defs>
</svg>
