<svg style="position: absolute; width: 0; height: 0;" width="0" height="0" version="1.1" xmlns="http://www.w3.org/2000/svg" xmlns:xlink="http://www.w3.org/1999/xlink">
<defs>


<symbol id="ss-logo" viewBox="0 0 100 32">
<path style="fill: var(--sslogo-color1)" d="M37.691 25.176h2.689c0 0.874 0.624 1.578 3.204 1.578 2.721 0 3.172-0.547 3.172-1.251 0-0.422-0.266-0.672-0.813-0.797-0.64-0.141-2.218-0.202-3.361-0.266-1.36-0.077-2.861-0.25-3.703-0.688-0.749-0.39-1.251-1.127-1.251-2.125 0-1.908 1.844-3.47 5.924-3.47 4.891 0 5.736 1.687 5.736 3.546h-2.689c0-0.938-0.922-1.485-3.047-1.485s-2.922 0.454-2.922 1.187c0 0.39 0.218 0.624 0.656 0.765 0.563 0.173 2.109 0.234 3.268 0.314 1.501 0.093 2.781 0.218 3.658 0.579 0.986 0.406 1.546 1.219 1.546 2.205 0 1.626-0.874 3.546-6.174 3.546s-5.892-2.266-5.892-3.642zM50.932 23.502c0-3.047 2.173-5.345 6.456-5.345 4.532 0 6.001 2.471 6.001 4.19 0 0.032 0 0.157-0.016 0.25h-2.673v-0.064c0-0.954-0.954-2.157-3.172-2.157s-3.438 1.36-3.438 3.127c0 1.642 0.97 3.095 3.453 3.095 2.125 0 3.204-0.97 3.204-2.109v-0.093h2.673c0.016 0.077 0.016 0.189 0.016 0.218 0 2-1.626 4.206-6.017 4.206-4.875 0-6.484-2.657-6.484-5.313zM73.877 26.537h-6.049l-1.063 2.093h-3.095l5.595-10.284h3.562l5.595 10.284h-3.486l-1.063-2.093zM72.984 24.786l-2.141-4.19h-0.016l-2.125 4.19h4.282zM79.629 18.346h3.002v7.909h6.094v2.375h-9.096v-10.284zM90.008 18.346h9.72v2.218h-6.721v2.016h5.156v1.751h-5.156v2.077h6.878v2.218h-9.877v-10.284zM37.572 11.663h2.698c0 0.88 0.627 1.584 3.217 1.584 2.73 0 3.185-0.55 3.185-1.255 0-0.422-0.266-0.675-0.816-0.8-0.643-0.141-2.228-0.205-3.373-0.266-1.363-0.077-2.871-0.25-3.719-0.691-0.752-0.394-1.255-1.13-1.255-2.135 0-1.914 1.853-3.482 5.947-3.482 4.91 0 5.758 1.693 5.758 3.562h-2.698c0-0.941-0.925-1.492-3.060-1.492s-2.935 0.455-2.935 1.194c0 0.394 0.221 0.627 0.659 0.768 0.563 0.173 2.119 0.237 3.281 0.314 1.508 0.093 2.794 0.221 3.671 0.579 0.989 0.406 1.552 1.223 1.552 2.212 0 1.632-0.88 3.562-6.196 3.562s-5.915-2.276-5.915-3.655zM51.098 10.521v-5.713h3.012v5.38c0 1.978 1.223 2.746 3.233 2.746s3.233-0.768 3.233-2.746v-5.38h2.698v5.71c0 3.265-2.292 4.801-6.072 4.801s-6.104-1.536-6.104-4.801zM64.954 4.807h6.212c3.53 0 5.083 1.239 5.083 3.703s-1.523 3.578-5.163 3.578h-3.124v3.044h-3.012v-10.325zM71.025 10.175c1.616 0 2.368-0.502 2.368-1.568s-0.675-1.568-2.352-1.568h-3.076v3.137h3.060zM77.539 4.807h9.759v2.228h-6.747v2.023h5.179v1.757h-5.179v2.087h6.904v2.228h-9.916v-10.322zM88.901 4.807h6.497c3.828 0 5.022 1.207 5.022 3.060 0 1.037-0.439 2.039-1.866 2.465v0.032c1.632 0.378 1.805 1.524 1.805 2.605v2.167h-3.012v-2.167c0-1.066-0.406-1.552-1.693-1.552h-3.735v3.719h-3.012v-10.328zM95.539 9.656c1.492 0 2.023-0.55 2.023-1.351 0-0.736-0.55-1.271-2.292-1.271h-3.357v2.621h3.623z"></path>
<path style="fill: var(--sslogo-color3)" d="M31.401 1.437h-30.46c-0.518 0-0.941 0.423-0.941 0.941v28.678c0 0.518 0.422 0.941 0.941 0.941h30.46c0.518 0 0.941-0.422 0.941-0.941v-28.678c0-0.518-0.422-0.941-0.941-0.941zM24.536 7.326v-4.769h6.686v4.769h-6.686zM24.536 13.215v-4.769h6.686v4.769h-6.686zM24.536 19.105v-4.769h6.686v4.769h-6.686zM24.536 24.991v-4.769h6.686v4.769h-6.686zM31.222 26.111v4.769h-6.686v-4.769h6.686zM23.416 26.111v4.769h-6.686v-4.769h6.686zM23.416 20.222v4.769h-6.686v-4.769h6.686zM23.416 14.332v4.769h-6.686v-4.769h6.686zM23.416 8.447v4.769h-6.686v-4.769h6.686zM23.416 2.557v4.769h-6.686v-4.769h6.686zM15.613 26.111v4.769h-6.686v-4.769h6.686zM15.613 20.222v4.769h-6.686v-4.769h6.686zM15.613 14.332v4.769h-6.686v-4.769h6.686zM15.613 8.447v4.769h-6.686v-4.769h6.686zM15.613 2.557v4.769h-6.686v-4.769h6.686zM7.806 2.557v4.769h-6.689v-4.769h6.686zM7.806 8.447v4.769h-6.689v-4.769h6.686zM7.806 14.332v4.769h-6.689v-4.769h6.686zM7.806 20.222v4.769h-6.689v-4.769h6.686zM7.806 26.111v4.769h-6.689v-4.769h6.686z"></path>
<path style="fill: var(--sslogo-color2)" d="M3.201 24.181c0.749-0.749 1.962-0.749 2.711 0s0.749 1.962 0 2.711-1.962 0.749-2.711 0c-0.749-0.749-0.749-1.962 0-2.711zM21.47 12.508c-0.749-0.749-1.962-0.749-2.711 0s-0.749 1.962 0 2.711c0.749 0.749 1.962 0.749 2.711 0s0.749-1.962 0-2.711z"></path>
<path style="fill: var(--sslogo-color1)" d="M29.251 3.274c-0.749 0.749-1.962 0.749-2.711 0s-0.749-1.962 0-2.711c0.749-0.749 1.962-0.749 2.711 0s0.749 1.962 0 2.711zM21.47 0.56c-0.749-0.749-1.962-0.749-2.711 0s-0.749 1.962 0 2.711c0.749 0.749 1.962 0.749 2.711 0s0.749-1.962 0-2.711zM13.692 0.56c-0.749-0.749-1.962-0.749-2.711 0s-0.749 1.962 0 2.711 1.962 0.749 2.711 0c0.749-0.749 0.749-1.962 0-2.711zM5.912 0.56c-0.749-0.749-1.962-0.749-2.711 0s-0.749 1.962 0 2.711c0.749 0.749 1.962 0.749 2.711 0s0.749-1.962 0-2.711zM5.912 6.398c-0.749-0.749-1.962-0.749-2.711 0s-0.749 1.962 0 2.711 1.962 0.749 2.711 0c0.749-0.749 0.749-1.962 0-2.711zM10.978 26.892c0.749 0.749 1.962 0.749 2.711 0s0.749-1.962 0-2.711c-0.749-0.749-1.962-0.749-2.711 0s-0.749 1.962 0 2.711zM18.759 26.892c0.749 0.749 1.962 0.749 2.711 0s0.749-1.962 0-2.711-1.962-0.749-2.711 0c-0.749 0.749-0.749 1.962 0 2.711zM26.54 26.892c0.749 0.749 1.962 0.749 2.711 0s0.749-1.962 0-2.711-1.962-0.749-2.711 0c-0.749 0.749-0.749 1.962 0 2.711zM26.54 21.057c0.749 0.749 1.962 0.749 2.711 0s0.749-1.962 0-2.711c-0.749-0.749-1.962-0.749-2.711 0s-0.749 1.962 0 2.711zM5.912 12.508c-0.749-0.749-1.962-0.749-2.711 0s-0.749 1.962 0 2.711c0.749 0.749 1.962 0.749 2.711 0s0.749-1.962 0-2.711zM13.692 12.508c-0.749-0.749-1.962-0.749-2.711 0s-0.749 1.962 0 2.711c0.749 0.749 1.962 0.749 2.711 0s0.749-1.962 0-2.711zM29.251 12.508c-0.749-0.749-1.962-0.749-2.711 0s-0.749 1.962 0 2.711c0.749 0.749 1.962 0.749 2.711 0s0.749-1.962 0-2.711z"></path>
</symbol>

<symbol id="tick" viewBox="0 0 32 32">
    <path fill="#22b573" style="fill: var(--color1, #22b573)" d="M32 16c0 8.837-7.163 16-16 16s-16-7.163-16-16c0-8.837 7.163-16 16-16s16 7.163 16 16z"></path>
    <path fill="#fff" style="fill: var(--color2, #fff)" d="M13.060 22.88l-5.98-6 2.060-2.080 3.92 3.92 8.86-8.86 2.080 2.080-10.94 10.94z"></path>
</symbol>

<symbol id="cross" viewBox="0 0 32 32">
    <path fill="#b11a59" style="fill: var(--color6, #b11a59)" d="M32 16c0 8.837-7.163 16-16 16s-16-7.163-16-16c0-8.837 7.163-16 16-16s16 7.163 16 16z"></path>
    <path fill="#fff" style="fill: var(--color2, #fff)" d="M22.060 12.020l-2.080-2.080-3.98 3.98-3.98-3.98-2.080 2.080 3.98 3.98-3.98 3.98 2.080 2.080 3.98-3.98 3.98 3.98 2.080-2.080-3.98-3.98 3.98-3.98z"></path>
</symbol>

<symbol id="arpeggio" viewBox="0 0 32 32">
    <path d="M8.326 6.771h-0.301v17.082c-0.736-0.586-2.118-0.579-3.418 0.096-1.568 0.816-2.416 2.291-1.894 3.299 0.522 1.005 2.218 1.162 3.789 0.346 1.178-0.611 1.949-1.597 2.038-2.477h0.010v-11.917l9.869-1.344v8.422c-0.736-0.586-2.118-0.579-3.418 0.096-1.568 0.816-2.416 2.291-1.894 3.299s2.218 1.162 3.789 0.346c1.178-0.611 1.949-1.597 2.038-2.477h0.010v-9.76l9.869-1.344v6.266c-0.736-0.586-2.118-0.579-3.418 0.096-1.568 0.816-2.416 2.291-1.894 3.299s2.218 1.162 3.789 0.346c1.178-0.611 1.949-1.597 2.038-2.477h0.010v-14.061l-21.011 2.864zM8.55 10.669v-1.398l9.869-1.344v1.398l-9.869 1.344zM28.813 7.907l-9.869 1.344v-1.398l9.869-1.344v1.398z"></path>
</symbol>

<symbol id="chords" viewBox="0 0 32 32">
<path d="M7.36 29.44h-1.92v-1.6h1.92v1.6zM7.36 2.56h-1.92v16.32h1.92v-16.32zM19.84 2.56h-1.92v26.88h1.92v-26.88zM6.4 21.12c-1.235 0-2.24 1.005-2.24 2.24s1.005 2.24 2.24 2.24 2.24-1.005 2.24-2.24-1.005-2.24-2.24-2.24zM6.4 19.84c1.946 0 3.52 1.574 3.52 3.52s-1.574 3.52-3.52 3.52-3.52-1.574-3.52-3.52 1.574-3.52 3.52-3.52v0zM13.44 19.84h-1.92v9.6h1.92v-9.6zM13.44 2.56h-1.92v8.32h1.92v-8.32zM12.48 13.12c-1.235 0-2.24 1.005-2.24 2.24s1.005 2.24 2.24 2.24 2.24-1.005 2.24-2.24-1.005-2.24-2.24-2.24zM12.48 11.84c1.946 0 3.52 1.574 3.52 3.52s-1.574 3.52-3.52 3.52-3.52-1.574-3.52-3.52 1.574-3.52 3.52-3.52v0zM26.24 13.76h-1.92v15.68h1.92v-15.68zM26.24 2.56h-1.92v2.24h1.92v-2.24zM25.28 7.040c-1.235 0-2.24 1.005-2.24 2.24s1.005 2.24 2.24 2.24 2.24-1.005 2.24-2.24-1.005-2.24-2.24-2.24zM25.28 5.76c1.946 0 3.52 1.574 3.52 3.52s-1.574 3.52-3.52 3.52-3.52-1.574-3.52-3.52 1.574-3.52 3.52-3.52v0z"></path>
</symbol> 

<symbol id="share" viewBox="0 0 32 32">
<path d="M22.611 28.090c-1.005 0-1.862-0.352-2.566-1.056s-1.056-1.562-1.056-2.566c0-0.141 0.013-0.288 0.032-0.435s0.051-0.288 0.090-0.41l-8.525-4.954c-0.346 0.301-0.723 0.538-1.146 0.71s-0.864 0.256-1.331 0.256c-1.005 0-1.862-0.352-2.566-1.056s-1.056-1.562-1.056-2.566 0.352-1.862 1.056-2.566c0.704-0.704 1.562-1.056 2.566-1.056 0.461 0 0.909 0.083 1.331 0.256s0.806 0.41 1.146 0.71l8.525-4.954c-0.038-0.122-0.070-0.256-0.090-0.41s-0.032-0.294-0.032-0.435c0-1.005 0.352-1.862 1.056-2.566s1.562-1.056 2.566-1.056 1.862 0.352 2.566 1.056c0.704 0.704 1.056 1.562 1.056 2.566s-0.352 1.862-1.056 2.566c-0.704 0.704-1.562 1.056-2.566 1.056-0.461 0-0.909-0.083-1.331-0.256s-0.806-0.41-1.146-0.71l-8.525 4.954c0.038 0.122 0.070 0.256 0.090 0.41s0.032 0.294 0.032 0.435-0.013 0.288-0.032 0.435-0.051 0.288-0.090 0.41l8.525 4.954c0.346-0.301 0.723-0.538 1.146-0.71s0.864-0.256 1.331-0.256c1.005 0 1.862 0.352 2.566 1.056s1.056 1.562 1.056 2.566-0.352 1.862-1.056 2.566c-0.704 0.704-1.562 1.056-2.566 1.056zM22.611 8.749c0.346 0 0.627-0.115 0.864-0.346s0.346-0.518 0.346-0.864-0.115-0.627-0.346-0.864-0.518-0.346-0.864-0.346-0.627 0.115-0.864 0.346-0.346 0.518-0.346 0.864 0.115 0.627 0.346 0.864 0.518 0.346 0.864 0.346zM8.109 17.21c0.346 0 0.627-0.115 0.864-0.346 0.23-0.23 0.346-0.518 0.346-0.864s-0.115-0.627-0.346-0.864c-0.23-0.23-0.518-0.346-0.864-0.346s-0.627 0.115-0.864 0.346c-0.23 0.23-0.346 0.518-0.346 0.864s0.115 0.627 0.346 0.864 0.518 0.346 0.864 0.346zM22.611 25.67c0.346 0 0.627-0.115 0.864-0.346s0.346-0.518 0.346-0.864-0.115-0.627-0.346-0.864-0.518-0.346-0.864-0.346-0.627 0.115-0.864 0.346-0.346 0.518-0.346 0.864 0.115 0.627 0.346 0.864 0.518 0.346 0.864 0.346z"></path>
</symbol>

<!--sidebar-->
<symbol id="scale" viewBox="0 0 32 32">
<path d="M27.648 28.41h-23.546c-0.634 0-1.152-0.518-1.152-1.152v-22.17c0-0.634 0.518-1.152 1.152-1.152h23.546c0.634 0 1.152 0.518 1.152 1.152v22.17c0 0.634-0.518 1.152-1.152 1.152zM22.765 26.694h4.32v-2.835h-4.32v2.835zM16.73 26.694h4.32v-2.835h-4.32v2.835zM10.694 26.694h4.32v-2.835h-4.32v2.835zM4.666 26.694h4.32v-2.835h-4.32v2.835zM22.765 22.144h4.32v-2.835h-4.32v2.835zM16.73 22.144h4.32v-2.835h-4.32v2.835zM10.694 22.144h4.32v-2.835h-4.32v2.835zM4.666 22.144h4.32v-2.835h-4.32v2.835zM22.765 17.587h4.32v-2.835h-4.32v2.835zM16.73 17.587h4.32v-2.835h-4.32v2.835zM10.694 17.587h4.32v-2.835h-4.32v2.835zM4.666 17.587h4.32v-2.835h-4.32v2.835zM22.765 13.037h4.32v-2.835h-4.32v2.835zM16.73 13.037h4.32v-2.835h-4.32v2.835zM10.694 13.037h4.32v-2.835h-4.32v2.835zM4.666 13.037h4.32v-2.835h-4.32v2.835zM22.765 8.486h4.32v-2.835h-4.32v2.835zM16.73 8.486h4.32v-2.835h-4.32v2.835zM10.694 8.486h4.32v-2.835h-4.32v2.835zM4.666 8.486h4.32v-2.835h-4.32v2.835z"></path>
</symbol>

<symbol id="triad" viewBox="0 0 32 32">
<path d="M21.12 8.32c0 2.829-2.291 5.12-5.12 5.12s-5.12-2.291-5.12-5.12 2.291-5.12 5.12-5.12 5.12 2.291 5.12 5.12zM8.32 18.56c-2.829 0-5.12 2.291-5.12 5.12s2.291 5.12 5.12 5.12 5.12-2.291 5.12-5.12-2.291-5.12-5.12-5.12zM23.68 18.56c-2.829 0-5.12 2.291-5.12 5.12s2.291 5.12 5.12 5.12 5.12-2.291 5.12-5.12-2.291-5.12-5.12-5.12z"></path>
</symbol>

<symbol id="settings" viewBox="0 0 32 32">
<path d="M14.554 28.397v-8.166h2.637v2.758h11.206v2.637h-11.206v2.778h-2.637zM3.603 25.619v-2.637h8.307v2.637h-8.307zM9.28 20.083v-2.758h-5.677v-2.637h5.677v-2.778h2.637v8.166h-2.637zM14.554 17.325v-2.637h13.843v2.637h-13.843zM20.083 11.776v-8.173h2.637v2.778h5.677v2.637h-5.677v2.758h-2.637zM3.603 9.018v-2.637h13.843v2.637h-13.843z"></path>
</symbol>

<symbol id="metronome" viewBox="0 0 32 32">
<path d="M11.168 26.874c0 1.235-0.896 1.862-2.394 1.862h-3.283v-6.899h3.098c1.498 0 2.374 0.762 2.374 1.901s-0.774 1.357-1.184 1.414v0.045c0.474 0.045 1.389 0.557 1.389 1.683zM8.109 23.238h-0.71v1.37h0.742c0.544 0 0.87-0.211 0.87-0.659s-0.326-0.71-0.896-0.71zM9.197 26.637c0-0.416-0.346-0.723-0.858-0.723h-0.941v1.421h0.973c0.512 0 0.826-0.23 0.826-0.698zM17.856 24.378c0 1.754-1.306 2.541-2.79 2.541h-1.069v1.818h-1.952v-6.899h2.758c1.869 0 3.053 0.794 3.053 2.541zM15.878 24.378c0-0.608-0.41-1.043-1.299-1.043h-0.589v2.093h0.659c0.787 0 1.222-0.346 1.222-1.043zM26.502 28.736h-1.92v-3.098c0-0.333 0.032-0.698 0.051-0.762l-0.051-0.019c-0.013 0.051-0.102 0.346-0.179 0.525l-1.357 3.418h-0.979l-1.382-3.418c-0.070-0.179-0.166-0.467-0.179-0.525l-0.051 0.019c0.019 0.064 0.051 0.448 0.051 0.762v3.098h-1.901v-6.899h2.067l1.318 2.842c0.269 0.582 0.544 1.299 0.576 1.44h0.045c0.019-0.147 0.301-0.87 0.563-1.453l1.274-2.835h2.061v6.899zM16.87 7.059v-3.552h-2.618v3.552h-2.182v5.229c0 1.466 0.902 2.714 2.182 3.232v5.485h2.618v-5.485c1.28-0.518 2.182-1.766 2.182-3.232v-5.229h-2.182z"></path>
</symbol>

</defs>
</svg>