<svg style="position: absolute; width: 0; height: 0;" width="0" height="0" version="1.1" xmlns="http://www.w3.org/2000/svg" xmlns:xlink="http://www.w3.org/1999/xlink">
<defs>

<symbol id="superscale-logo" viewBox="0 0 53 32">
<path d="M-46.921 334.696l-3.973-3.973 377.956-377.959 3.973 3.973-377.956 377.959zM331.037-30.145l-3.973-3.973-377.959 377.956 3.973 3.973 377.959-377.956zM331.037-17.031l-3.973-3.973-377.959 377.959 3.973 3.973 377.959-377.959zM331.037-3.917l-3.973-3.973-377.959 377.959 3.973 3.973 377.959-377.956zM331.037 9.197l-3.973-3.973-377.959 377.959 3.973 3.973 377.959-377.956zM331.037 22.311l-3.973-3.973-377.959 377.959 3.973 3.973 377.959-377.956zM331.037 35.425l-3.973-3.973-377.959 377.961 3.973 3.973 377.959-377.959z"></path>
<path d="M-1.366 380.255l-3.973-3.973 377.956-377.961 3.973 3.973-377.956 377.961zM376.593 15.41l-3.973-3.973-377.959 377.956 3.973 3.973 377.959-377.956zM376.593 28.524l-3.973-3.973-377.959 377.959 3.973 3.973 377.959-377.959zM376.593 41.639l-3.973-3.973-377.959 377.959 3.973 3.973 377.959-377.956zM376.593 54.753l-3.973-3.973-377.959 377.959 3.973 3.973 377.959-377.956zM376.593 67.867l-3.973-3.973-377.959 377.961 3.973 3.973 377.959-377.959zM376.593 80.981l-3.973-3.973-377.959 377.961 3.973 3.973 377.959-377.956z"></path>
<path d="M53.333 0h-53.333v1.185h2.581c-0.764 0.228-1.378 0.788-1.378 1.713 0 1.262 0.907 1.671 1.775 2 0.59 0.216 1.197 0.421 1.197 0.933s-0.456 0.72-0.916 0.72c-0.702 0-1.084-0.364-1.588-0.833l-0.981 0.963c0.498 0.507 1.040 0.853 1.668 1.022h-2.359v1.185h53.333v-1.185h-23.707c-0.441-0.601-1.39-1.923-1.967-2.723 0.711-0.281 1.354-0.841 1.354-1.822 0-1.307-1.129-1.879-2.142-1.973h26.462v-1.185zM8.379 1.185h2.317v3.6c0 1.167-0.447 1.727-1.159 1.727s-1.159-0.56-1.159-1.727v-3.6zM12.21 4.625v-3.44h1.327v6.519h-3.070c1.218-0.341 1.742-1.404 1.742-3.079zM15.641 2.421c0.56 0 0.933 0.317 0.933 0.833 0 0.59-0.468 0.794-1.111 0.794h-0.412v-1.627h0.59zM15.052 5.298h0.625c1.141 0 2.504-0.551 2.504-2.074 0-1.366-1.132-1.944-2.184-2.039h3.016v6.519h-3.961v-2.406zM5.781 5.801c0-1.431-1.132-1.858-2.056-2.178-0.421-0.148-1.010-0.261-1.010-0.738 0-0.373 0.364-0.56 0.711-0.56 0.504 0 0.972 0.29 1.354 0.607l0.85-1.064c-0.43-0.326-0.853-0.557-1.316-0.684h2.551v3.44c0 1.671 0.524 2.738 1.721 3.079h-4.45c0.883-0.24 1.641-0.847 1.641-1.899zM27.736 7.701h-1.79v-2.545h0.065l1.724 2.545zM27.404 3.185c0 0.504-0.447 0.72-1.055 0.72h-0.403v-1.484h0.578c0.524 0 0.877 0.308 0.877 0.767zM24.433 7.701h-1.123v-1.247h-2.785v-1.484h2.785v-1.253h-2.785v-1.298h2.785v-1.236h1.123v6.519zM53.33 16.59h-53.33v-1.185h53.333v1.185zM52.667 25.538v-1.244h0.664v-1.185h-53.33v1.185h26.353c-0.776 0.222-1.407 0.785-1.407 1.719 0 1.259 0.904 1.671 1.772 1.997 0.587 0.213 1.194 0.421 1.194 0.933s-0.456 0.717-0.916 0.717c-0.699 0-1.081-0.364-1.585-0.83l-0.981 0.96c0.498 0.504 1.037 0.85 1.662 1.019h-26.092v1.185h53.333v-1.185h-0.664v-1.244h-2.779v-1.484h2.779v-1.25h-2.779v-1.298h2.779zM35.096 29.055c-0.373 0.356-0.877 0.569-1.372 0.569-1.194 0-1.858-0.868-1.858-2.071s0.785-2.071 1.867-2.071c0.513 0 0.981 0.225 1.372 0.551l0.729-1.167c-0.415-0.264-0.806-0.456-1.224-0.572h4.486l-2.711 6.519h-1.793c0.486-0.127 0.945-0.353 1.36-0.676l-0.859-1.081zM40.21 28.468h-1.307l0.673-1.884h0.009l0.625 1.884zM38.465 29.671h2.154l0.379 1.141h-2.945l0.409-1.141zM40.305 24.293h3.244v6.519h-0.815l-2.43-6.519zM29.514 28.916c0-1.428-1.129-1.858-2.053-2.175-0.421-0.148-1.007-0.261-1.007-0.738 0-0.373 0.364-0.56 0.708-0.56 0.504 0 0.969 0.29 1.354 0.607l0.85-1.064c-0.441-0.335-0.874-0.566-1.354-0.693h4.806c-1.473 0.382-2.554 1.668-2.554 3.259s0.99 2.886 2.456 3.259h-4.841c0.88-0.24 1.636-0.847 1.636-1.896zM47.674 30.812v-1.244h-2.613v-5.274h3.313v6.519h-0.699z"></path>
</symbol>

<symbol id="arpeggio" viewBox="0 0 32 32">
    <path d="M8.326 6.771h-0.301v17.082c-0.736-0.586-2.118-0.579-3.418 0.096-1.568 0.816-2.416 2.291-1.894 3.299 0.522 1.005 2.218 1.162 3.789 0.346 1.178-0.611 1.949-1.597 2.038-2.477h0.010v-11.917l9.869-1.344v8.422c-0.736-0.586-2.118-0.579-3.418 0.096-1.568 0.816-2.416 2.291-1.894 3.299s2.218 1.162 3.789 0.346c1.178-0.611 1.949-1.597 2.038-2.477h0.010v-9.76l9.869-1.344v6.266c-0.736-0.586-2.118-0.579-3.418 0.096-1.568 0.816-2.416 2.291-1.894 3.299s2.218 1.162 3.789 0.346c1.178-0.611 1.949-1.597 2.038-2.477h0.010v-14.061l-21.011 2.864zM8.55 10.669v-1.398l9.869-1.344v1.398l-9.869 1.344zM28.813 7.907l-9.869 1.344v-1.398l9.869-1.344v1.398z"></path>
</symbol>

<symbol id="chords" viewBox="0 0 32 32">
<path d="M7.36 29.44h-1.92v-1.6h1.92v1.6zM7.36 2.56h-1.92v16.32h1.92v-16.32zM19.84 2.56h-1.92v26.88h1.92v-26.88zM6.4 21.12c-1.235 0-2.24 1.005-2.24 2.24s1.005 2.24 2.24 2.24 2.24-1.005 2.24-2.24-1.005-2.24-2.24-2.24zM6.4 19.84c1.946 0 3.52 1.574 3.52 3.52s-1.574 3.52-3.52 3.52-3.52-1.574-3.52-3.52 1.574-3.52 3.52-3.52v0zM13.44 19.84h-1.92v9.6h1.92v-9.6zM13.44 2.56h-1.92v8.32h1.92v-8.32zM12.48 13.12c-1.235 0-2.24 1.005-2.24 2.24s1.005 2.24 2.24 2.24 2.24-1.005 2.24-2.24-1.005-2.24-2.24-2.24zM12.48 11.84c1.946 0 3.52 1.574 3.52 3.52s-1.574 3.52-3.52 3.52-3.52-1.574-3.52-3.52 1.574-3.52 3.52-3.52v0zM26.24 13.76h-1.92v15.68h1.92v-15.68zM26.24 2.56h-1.92v2.24h1.92v-2.24zM25.28 7.040c-1.235 0-2.24 1.005-2.24 2.24s1.005 2.24 2.24 2.24 2.24-1.005 2.24-2.24-1.005-2.24-2.24-2.24zM25.28 5.76c1.946 0 3.52 1.574 3.52 3.52s-1.574 3.52-3.52 3.52-3.52-1.574-3.52-3.52 1.574-3.52 3.52-3.52v0z"></path>
</symbol>

<symbol id="share" viewBox="0 0 32 32">
<path d="M23.523 17.424c-1.472 0-2.813 0.547-3.84 1.443l-5.418-1.773c0.045-0.288 0.074-0.582 0.074-0.883 0-0.502-0.070-0.989-0.189-1.456l4.582-2.323c1.075 1.309 2.704 2.141 4.528 2.141 3.235 0 5.859-2.624 5.859-5.859s-2.624-5.859-5.859-5.859-5.859 2.624-5.859 5.859c0 0.502 0.070 0.989 0.189 1.456l-4.582 2.323c-1.075-1.309-2.704-2.141-4.528-2.141-3.235 0-5.859 2.624-5.859 5.859s2.624 5.859 5.859 5.859c2.032 0 3.824-1.037 4.874-2.608l4.765 1.558c-0.291 0.698-0.454 1.459-0.454 2.262 0 3.235 2.624 5.859 5.859 5.859s5.859-2.624 5.859-5.859-2.624-5.859-5.859-5.859zM23.261 5.389c1.834 0 3.325 1.491 3.325 3.325s-1.491 3.325-3.325 3.325-3.325-1.491-3.325-3.325 1.491-3.325 3.325-3.325zM8.477 19.536c-1.834 0-3.325-1.491-3.325-3.325s1.491-3.325 3.325-3.325 3.325 1.491 3.325 3.325-1.491 3.325-3.325 3.325zM23.52 26.608c-1.834 0-3.325-1.491-3.325-3.325s1.491-3.325 3.325-3.325 3.325 1.491 3.325 3.325-1.491 3.325-3.325 3.325z"></path>
</symbol>

</defs>
</svg>