<?xml version="1.0" encoding="UTF-8"?><svg id="Layer_2" xmlns="http://www.w3.org/2000/svg" viewBox="0 0 182.36 78.77"><defs><style>.cls-1{fill:#fff;stroke-width:0px;}</style></defs><g id="Nav"><path class="cls-1" d="m6.96,6.18c-.67,0-1.37.36-1.37,1.08,0,.92,1.13,1.13,1.94,1.42,1.78.61,3.96,1.44,3.96,4.19s-2.59,3.88-4.89,3.88c-1.98,0-3.52-.79-4.91-2.19l1.89-1.85c.97.9,1.71,1.6,3.06,1.6.88,0,1.76-.41,1.76-1.38s-1.17-1.38-2.3-1.8c-1.67-.63-3.42-1.42-3.42-3.85s2.14-3.52,4.24-3.52c1.65,0,2.95.54,4.28,1.55l-1.64,2.05c-.74-.61-1.64-1.17-2.61-1.17Z"/><path class="cls-1" d="m18.68,16.75c-3.58,0-5.11-2.19-5.11-6.15V3.95h2.91v6.96c0,2.25.86,3.33,2.23,3.33s2.23-1.08,2.23-3.33V3.95h2.91v6.65c0,3.96-1.53,6.15-5.18,6.15Z"/><path class="cls-1" d="m30.53,3.95c2.18,0,4.82,1.06,4.82,3.96s-2.63,3.99-4.82,3.99h-1.2v4.64h-2.91V3.95h4.12Zm-1.2,5.54h.79c1.24,0,2.14-.4,2.14-1.53,0-.99-.72-1.6-1.8-1.6h-1.13v3.13Z"/><path class="cls-1" d="m36.95,16.54V3.95h8.27v2.41h-5.36v2.5h5.36v2.41h-5.36v2.86h5.36v2.41h-8.27Z"/><path class="cls-1" d="m47.38,3.95h4.1c2.07,0,4.71,1.06,4.71,3.83,0,1.89-1.24,2.97-2.61,3.51,1.11,1.55,2.95,4.1,3.79,5.25h-3.63l-3.33-4.91h-.13v4.91h-2.91V3.95Zm2.91,5.27h.77c1.17,0,2.03-.41,2.03-1.38,0-.88-.68-1.47-1.69-1.47h-1.11v2.86Z"/><path class="cls-1" d="m130.04,64.46c-.66,0-1.36.36-1.36,1.08,0,.92,1.13,1.13,1.94,1.42,1.78.61,3.95,1.44,3.95,4.18s-2.59,3.88-4.88,3.88c-1.98,0-3.52-.79-4.9-2.19l1.89-1.85c.97.9,1.71,1.6,3.05,1.6.88,0,1.76-.41,1.76-1.38s-1.17-1.38-2.3-1.8c-1.67-.63-3.41-1.42-3.41-3.84s2.14-3.52,4.24-3.52c1.65,0,2.94.54,4.27,1.54l-1.63,2.05c-.74-.61-1.63-1.17-2.6-1.17Z"/><path class="cls-1" d="m145.33,65.59c-.75-.63-1.65-1.06-2.64-1.06-2.08,0-3.59,1.78-3.59,3.99s1.27,3.99,3.57,3.99c.95,0,1.92-.41,2.64-1.1l1.65,2.08c-1.29,1.01-2.8,1.53-4.42,1.53-3.79,0-6.54-2.71-6.54-6.5s2.98-6.5,6.66-6.5c1.53,0,2.73.48,4.06,1.33l-1.4,2.24Z"/><path class="cls-1" d="m156.68,74.8l-.74-2.21h-4.15l-.79,2.21h-3.21l5.23-12.57h2.32l4.69,12.57h-3.34Zm-4.04-4.52h2.51l-1.2-3.63h-.02l-1.29,3.63Z"/><path class="cls-1" d="m161.58,74.8v-12.57h2.91v10.16h5.03v2.41h-7.94Z"/><path class="cls-1" d="m170.86,74.8v-12.57h8.26v2.41h-5.35v2.5h5.35v2.41h-5.35v2.86h5.35v2.41h-8.26Z"/><rect class="cls-1" x="0" width="182.36" height="1.08"/><rect class="cls-1" x="0" y="19.42" width="182.36" height="1.08"/><rect class="cls-1" x="0" y="38.85" width="182.36" height="1.08"/><rect class="cls-1" y="58.27" width="182.36" height="1.08"/><rect class="cls-1" y="77.69" width="182.36" height="1.08"/><rect class="cls-1" x="68.36" y="19.65" width="19" height="8"/><rect class="cls-1" x="97.36" y="39.65" width="19" height="8"/></g></svg>